<?xml version="1.0" encoding="utf-8"?>
<!-- Generator: Adobe Illustrator 25.4.1, SVG Export Plug-In . SVG Version: 6.00 Build 0)  -->
<svg version="1.1" id="Слой_1" xmlns="http://www.w3.org/2000/svg" xmlns:xlink="http://www.w3.org/1999/xlink" x="0px" y="0px"
	 viewBox="0 0 792 612" style="enable-background:new 0 0 792 612;" xml:space="preserve">
<style type="text/css">
	.st0{fill:#FFFFFF;}
	.st1{fill:#AF2619;}
	.st2{fill:url(#SVGID_1_);}
	.st3{fill:url(#SVGID_00000078038920792022326700000000946351074115089054_);}
	.st4{fill:url(#SVGID_00000114758041615684776340000013814713386233111456_);}
	.st5{fill:url(#SVGID_00000152239289403768685380000004077640203066564749_);}
	.st6{fill:url(#SVGID_00000113332131553774009810000004210650403120590469_);}
	.st7{fill:url(#SVGID_00000118380836106780249480000003786645605257254016_);}
</style>
<circle class="st0" cx="162.4" cy="285.3" r="105.1"/>
<g>
	<g>
		<path class="st1" d="M734.4,217v69.6c0,6.8-5.6,12.4-12.4,12.4l-74.6-0.2l0.1-10.4l68.9-0.1c2.7-0.2,3.4-1.1,3.5-4v-56.7h-72v71.3
			l-13.8,0v-82L734.4,217z"/>
		<rect x="653.9" y="237.1" class="st1" width="61" height="10.3"/>
		<path class="st1" d="M692.3,269.5l0-37.6h13.2v39.2c0,6.2-5,11.2-11.2,11.2h-12.2l5.1-10.2l2.1,0
			C690.9,272.1,692.1,271,692.3,269.5"/>
		<polygon class="st1" points="669.5,247.5 653.9,282.2 667.1,282.3 684,247.5 		"/>
		<rect x="553.7" y="222.2" class="st1" width="69.6" height="8.4"/>
		<rect x="553.7" y="234.2" class="st1" width="69.6" height="8.4"/>
		<rect x="553.7" y="246.9" class="st1" width="69.6" height="8.4"/>
		<rect x="553.7" y="258.9" class="st1" width="69.6" height="8.4"/>
		<polygon class="st1" points="578.9,216.8 580.7,222.2 580.7,225.2 596.3,225.2 596.3,222.2 594.5,216.8 		"/>
		<polygon class="st1" points="596.3,258.9 596.3,263.3 580.7,263.3 580.7,258.9 580.7,230.6 580.7,225.2 596.3,225.2 596.3,230.6 
					"/>
		<rect x="531.5" y="228.8" class="st1" width="15.6" height="37.8"/>
		<polygon class="st1" points="555.5,216.8 544.1,228.9 544.7,231.8 522.5,231.8 536.3,216.8 		"/>
		<rect x="565.1" y="270.3" class="st1" width="15.6" height="28.8"/>
		<rect x="522.5" y="273.9" class="st1" width="100.8" height="9.6"/>
		<polygon class="st1" points="538.1,283.4 522.5,299.1 542.9,299.1 557.3,283.4 561.7,278.7 543.5,277.8 		"/>
		<polygon class="st1" points="607.1,283.4 622.7,299.1 602.3,299.1 587.9,283.4 584.9,278.7 603.1,278.7 		"/>
		<polygon class="st1" points="472.6,233 464.3,299.1 449.9,299.1 458.9,233 		"/>
		<rect x="442.6" y="250.5" class="st1" width="43.2" height="11.4"/>
		<rect x="443.8" y="216.8" class="st1" width="61.2" height="11.4"/>
		<path class="st1" d="M512.2,287.1l-3,11.4h-10.4c-4.5,0-8.2-3.7-8.2-8.2V228v-8h14.4v8v57.2c0,1.4,1.2,1.7,1.8,1.8
			C508.2,287.2,512.2,287.1,512.2,287.1z"/>
		<path class="st1" d="M443.8,289.5l-4.2,9.6l-12.8,0c-4.9,0-8.9-3-8.9-6.7v-50.8h15.6l0,46.4c0,1.2,1.4,1.4,2,1.5
			C437.7,289.6,443.8,289.5,443.8,289.5z"/>
		<polygon class="st1" points="411.4,216.8 419.8,234.8 438.4,234.8 430.1,216.8 		"/>
		<polygon class="st1" points="411.4,252.8 418,252.8 423.2,252.8 423.2,241.5 418,241.5 411.4,241.5 		"/>
		<path class="st1" d="M401.2,250.5v10.8h-33.9c-6.8,0-12.3-5.5-12.3-12.3v-32.1h15.6v30.1c0,2,1.6,3.5,3.5,3.5H401.2z"/>
		<polygon class="st1" points="401.2,224.6 338.8,233 338.8,245.6 401.2,237.2 		"/>
		<polygon class="st1" points="340,216.8 300.4,226.4 300.4,239 340,229.4 		"/>
		<rect x="313.6" y="229.7" class="st1" width="15.6" height="31.6"/>
		<rect x="343" y="264.2" class="st1" width="15.6" height="34.9"/>
		<rect x="300.4" y="274.5" class="st1" width="100.8" height="10.8"/>
		<g>
			
				<radialGradient id="SVGID_1_" cx="162.2141" cy="250.6075" r="111.7022" fx="114.4319" fy="235.3334" gradientUnits="userSpaceOnUse">
				<stop  offset="0" style="stop-color:#FFFFFF"/>
				<stop  offset="0.3292" style="stop-color:#F28C0F"/>
				<stop  offset="0.3939" style="stop-color:#E87612"/>
				<stop  offset="0.5186" style="stop-color:#D65018"/>
				<stop  offset="0.6343" style="stop-color:#C9351C"/>
				<stop  offset="0.7367" style="stop-color:#C2251E"/>
				<stop  offset="0.815" style="stop-color:#BF1F1F"/>
				<stop  offset="1" style="stop-color:#8C2626"/>
			</radialGradient>
			<path class="st2" d="M267.1,275.4c-12.4-16.5-29.4-21.5-47.9-23.8c-15.5-1.9-30.9-0.7-46.3,1.9c-2.6,0.4-3.3-0.3-3.7-2.7
				c-1.2-7-1.3-13.9-0.7-20.9c0.9-10.8,7.5-16.8,17.3-19.9c10.1-3.2,19.9-2,29.7,1.6c0.7,0.3,1.5,0.5,2.3,0.8
				c0.3,0.1,1.8,0.6,1.8,0.6c-7-5.5-14.8-9.4-22.7-12.1c-9.3-3.1-18.8-4.8-28.6-3.6c-14.5,1.8-24.5,10.5-28.6,24.6
				c-3.5,11.8-3,23.7-0.5,35.6c0.3,1.5,1.3,3.4,0,4.6c-1.9,1.6-4.4,2.3-6.9,2.8c-1.2,0.2-1.2-1.1-1.4-2c-0.6-3.6-1.5-7.3-1.7-11
				c-0.9-16.5-1.6-33.1,8-47.9c0.2-0.3,0.9-0.9,1-1.4c-1.4-0.2-2.9,0.7-3.7,1.3c-13.6,9.5-20.8,22.8-22.7,39.2
				c-1.1,9.3-0.1,18.4,1.7,27.4c0.5,2.4-0.1,3.5-2.2,4.7c-13.6,7.5-26,16.5-36.1,28.4c-3.7,4.4-10.5,17-11.5,17.6
				c-9.4-25.1-11-65.5,14.9-99.7c27.5-36.3,76.2-50.6,119.2-35.5C242.6,203.4,263.7,240.5,267.1,275.4z"/>
			
				<radialGradient id="SVGID_00000026122199739244172950000004354506214913221310_" cx="219.9329" cy="324.6361" r="66.6858" fx="177.1955" fy="279.3138" gradientTransform="matrix(1 0 0 0.9903 0 3.1492)" gradientUnits="userSpaceOnUse">
				<stop  offset="0" style="stop-color:#F28C0F"/>
				<stop  offset="0.5144" style="stop-color:#BF1515"/>
				<stop  offset="0.7865" style="stop-color:#8C2626"/>
			</radialGradient>
			<path style="fill:url(#SVGID_00000026122199739244172950000004354506214913221310_);" d="M250.2,329.3c5.2-3.8,9-8.9,12.9-14
				c-2.1,7.8-7.1,19.3-14.3,29.8c-7.5,10.9-17.5,20.6-26.2,26.3l-1.4-2c-17.7-27.1-33-55.4-43.7-86.1c-1.3-3.9-1.2-4.1,2.6-4.6
				c13.5-2,27-2.5,40.6-0.2c6.9,1.2,13.6,3.3,19.8,6.6c16.2,8.8,20.7,24.2,11.9,40.4C251.7,326.8,251,328.1,250.2,329.3z"/>
			
				<radialGradient id="SVGID_00000083797244343750310080000008251767028155478918_" cx="124.1572" cy="345.3055" r="45.7184" fx="122.2891" fy="299.6253" gradientUnits="userSpaceOnUse">
				<stop  offset="6.412485e-02" style="stop-color:#F28C0F"/>
				<stop  offset="0.3967" style="stop-color:#BF1F1F"/>
				<stop  offset="0.7894" style="stop-color:#8C2626"/>
			</radialGradient>
			<path style="fill:url(#SVGID_00000083797244343750310080000008251767028155478918_);" d="M162.8,390.3l-6.3-0.1
				c-25.7-1.4-44.7-12.9-44.7-12.9s-5-2.8-7.2-4.3c-0.2-0.1,1.6,0.6,1.7,0.6c2.3,0.7,3.5,1.2,4.8,1.2c0.1,0,0.1,0,0.2,0
				c0.2,0,0.5,0,0.7-0.1c-0.5-0.1-3.4-1.3-4.4-1.7c-0.2-0.1-0.4-0.2-0.7-0.3c-1.8-0.9-3.6-1.7-5.3-2.6
				c-15.8-8.6-20.4-23.9-11.9-39.7c6.6-12.3,16.9-20.9,28.2-28.4c3.6-2.4,3.7-2.4,5.2,1.8c10.1,28.3,22.9,55.4,37.2,81.8
				C160.3,385.6,162.8,390.3,162.8,390.3z"/>
			
				<radialGradient id="SVGID_00000085947235388700850100000003829218956707229830_" cx="106.2065" cy="373.8698" r="0" gradientUnits="userSpaceOnUse">
				<stop  offset="0" style="stop-color:#FFFFFF"/>
				<stop  offset="0.5144" style="stop-color:#A3A3A3"/>
				<stop  offset="0.7865" style="stop-color:#737372"/>
			</radialGradient>
			<path style="fill:url(#SVGID_00000085947235388700850100000003829218956707229830_);" d="M106.2,373.9"/>
			
				<radialGradient id="SVGID_00000075127567423976616410000006260886153328611741_" cx="106.2484" cy="373.8518" r="0" gradientUnits="userSpaceOnUse">
				<stop  offset="0" style="stop-color:#FFFFFF"/>
				<stop  offset="0.5144" style="stop-color:#A3A3A3"/>
				<stop  offset="0.7865" style="stop-color:#737372"/>
			</radialGradient>
			<path style="fill:url(#SVGID_00000075127567423976616410000006260886153328611741_);" d="M106.2,373.9"/>
			
				<radialGradient id="SVGID_00000136405038850329168930000006494007648135234729_" cx="169.1693" cy="337.9193" r="56.8976" fx="140.4199" fy="288.8194" gradientUnits="userSpaceOnUse">
				<stop  offset="4.610889e-03" style="stop-color:#F28C0F"/>
				<stop  offset="0.5559" style="stop-color:#BF1F1F"/>
				<stop  offset="1" style="stop-color:#8C2626"/>
			</radialGradient>
			<path style="fill:url(#SVGID_00000136405038850329168930000006494007648135234729_);" d="M183.9,388.2l-1.5-2.3
				c-9.5-15.7-18.1-31.8-26-48.3c-6.6-13.9-12.4-28.2-17.5-42.7c-0.9-2.7-0.6-4.1,2.2-5.1c7.8-2.8,6.1-3.5,9.3,4.1
				c9.7,23.5,21.9,45.8,35.2,67.5c4.2,6.8,8.5,13.5,12.9,20.2c1.1,1.6,1.4,2.1,1.4,2.1C194.2,385.7,189.1,387.1,183.9,388.2z"/>
		</g>
		<path class="st1" d="M113.4,378c-0.3-0.2-0.7-0.3-1-0.6C112.7,377.7,113,377.9,113.4,378z"/>
		<g>
			<path class="st1" d="M616,353.8c-2.6,0-5,0-7.7,0c-0.3-1.9-0.6-3.7-0.9-5.5c-0.6-4.4-2.8-6.6-7.2-6.9c-2.6-0.2-5.2,0-8.2,0
				c0,4.2,0,8.2,0,12.4c-2.6,0-4.7,0-7,0c0-11,0-21.8,0-33c6.3,0,12.7,0,19,0c0.8,0,1.6,0.1,2.4,0.2c5.2,0.5,8.3,2.6,9.2,6.7
				c0.9,3.9-0.1,9.5-4.9,11.4c-0.2,0.1-0.4,0.4-0.8,0.8C616,342.6,615.3,348.2,616,353.8z M592,335.3c4.3,0,8.5,0.2,12.6-0.1
				c2.4-0.1,3.3-2.2,3.3-4.3c0.1-2-0.7-4.1-3-4.2c-4.3-0.3-8.6-0.1-13-0.1C592,329.5,592,332.3,592,335.3z"/>
			<path class="st1" d="M512.3,344.3c0-7.7,0-15.5,0-23.5c2.4,0,4.4,0,6.6,0c0,10.9,0,21.8,0,32.9c-2.8,0-5.6,0-8.8,0
				c-4.4-7.6-9-15.5-13.5-23.4c-0.2,0.1-0.5,0.1-0.7,0.2c0,7.6,0,15.2,0,23.2c-2.4,0-4.4,0-6.6,0c0-10.9,0-21.8,0-32.9
				c2.9,0,5.7,0,9,0c4.3,7.8,8.7,15.8,13.2,23.7C511.8,344.5,512.1,344.4,512.3,344.3z"/>
			<path class="st1" d="M570.3,348.2c0-2.9,0-5.3,0-8c-3.1,0-6,0-9.2,0c0-2.1,0-3.8,0-5.8c5.4,0,10.7,0,16.2,0c0,6.5,0,12.8,0,19.2
				c-7.2,0-14.1,0.4-21-0.1c-4.9-0.4-7.8-4.1-9.2-8.8c-1.4-4.8-1.3-9.7,0.1-14.5c1.4-4.7,5.8-8.8,10.6-9.3l19.5-0.2
				c0,2.3,0,3.5,0,5.6c-3.8,0-7.6,0.1-11.3,0c-9.1-0.2-12.9,2.1-11.7,13.5c0.7,6.5,2.4,8,9,8.4C565.5,348.3,567.8,348.2,570.3,348.2
				z"/>
			<path class="st1" d="M654.8,337.6c0,11-5.4,16.5-16.2,16.6c-11.7,0.1-17.7-5.6-17.8-17c0-11.4,5.5-16.9,17-16.9
				C649.3,320.4,654.7,325.9,654.8,337.6z M628.5,337.7c0.3,1.5,0.4,3.5,1,5.4c1.2,4,3.7,5.6,8.1,5.7c4.6,0.1,7.5-1.5,8.4-5.6
				c0.7-3.2,0.8-6.7,0.5-10c-0.5-5-3.6-7.3-8.5-7.4c-4.9-0.1-8,2.2-9,7C628.7,334.2,628.7,335.7,628.5,337.7z"/>
			<path class="st1" d="M313.1,334.1c4.9,0,9.1,0,13.8,0c0-4.4,0-8.8,0-13.3c2.5,0,4.7,0,7,0c0,11,0,21.9,0,33c-2.2,0-4.4,0-6.9,0
				c0-4.5,0-8.9,0-13.5c-4.7,0-9,0-13.8,0c0,4.4,0,8.8,0,13.4c-2.6,0-4.7,0-7,0c0-11,0-21.8,0-32.9c2.1,0,4.2,0,6.8,0
				C313.1,325.1,313.1,329.5,313.1,334.1z"/>
			<path class="st1" d="M404.6,353.8c-1.1-2.5-2.3-4.9-3.4-7.4c-4.5,0-8.8,0-13.3,0c-1.2,2.5-2.3,5-3.4,7.4c-2.7,0-5.2,0-8.3,0
				c4.8-11.2,9.4-22.1,14.1-33.1c2.7,0,5.4,0,8.4,0c4.6,10.9,9.3,21.8,14.1,33.1C409.9,353.8,407.3,353.8,404.6,353.8z M395,329.2
				c-0.3,0-0.5,0-0.8,0c-1.5,3.6-3,7.2-4.6,11c3.5,0,6.5,0,10,0C398,336.2,396.5,332.7,395,329.2z"/>
			<path class="st1" d="M698.4,321.1c8,0,15.8-0.4,23.5,0.1c4.2,0.3,7.2,5.3,7.2,10.1c0,5.1-2.9,9.5-7.4,10.4
				c-2.7,0.5-5.5,0.5-8.3,0.6c-2.5,0.1-5,0-7.9,0c0,3.9,0,7.5,0,11.4c-2.6,0-4.7,0-7.1,0C698.4,342.8,698.4,332,698.4,321.1z
				 M705.6,326.3c0,3.5,0,6.7,0,10.1c3.9,0,7.6,0.1,11.3,0c2.9-0.1,4.1-1.7,4.2-4.8c0.1-3.3-0.9-5-4-5.2
				C713.4,326.1,709.6,326.3,705.6,326.3z"/>
			<path class="st1" d="M474.2,320.8c2.5,0,4.6,0,6.9,0c0,8,0.3,15.9-0.1,23.8c-0.2,4.6-3.4,7.6-7.9,8.8c-5.2,1.4-10.5,1.5-15.6-0.6
				c-3.5-1.4-5.9-4.2-6-7.9c-0.3-7.9-0.1-15.8-0.1-23.9c2.2,0,4.3,0,6.8,0c0.1,1.1,0.2,2.1,0.2,3.2c0,5.4,0,10.8,0,16.2
				c0,6.1,2.5,8.8,8,8.8c5.6,0,7.7-2.3,7.8-8.5c0-5.4,0-10.8,0-16.2C474.2,323.1,474.2,322.1,474.2,320.8z"/>
			<path class="st1" d="M430.6,342.5c-2.7,4.1-5,7.6-7.5,11.3c-2.6,0-5.1,0-8.4,0c3.9-5.7,7.6-11,11.5-16.6
				c-3.6-5.3-7.2-10.6-11.1-16.4c3.1,0,5.6,0,8.6,0c2.1,3.3,4.4,6.9,6.9,10.9c2.7-4,5.1-7.5,7.5-10.9c2.8,0,5.3,0,8.5,0
				c-4,5.7-7.7,10.9-11.5,16.4c3.7,5.4,7.4,10.8,11.4,16.6c-3,0-5.4,0-8.3,0C435.9,350.3,433.4,346.6,430.6,342.5z"/>
		</g>
	</g>
</g>
<path class="st1" d="M683.4,320.4c2.5,0,4.6,0,6.9,0c0,8,0.3,15.9-0.1,23.8c-0.2,4.6-3.4,7.6-7.9,8.8c-5.2,1.4-10.5,1.5-15.6-0.6
	c-3.5-1.4-5.9-4.2-6-7.9c-0.3-7.9-0.1-15.8-0.1-23.9c2.2,0,4.3,0,6.8,0c0.1,1.1,0.2,2.1,0.2,3.2c0,5.4,0,10.8,0,16.2
	c0,6.1,2.5,8.8,8,8.8c5.6,0,7.7-2.3,7.8-8.5c0-5.4,0-10.8,0-16.2C683.4,322.8,683.4,321.7,683.4,320.4z"/>
<path class="st1" d="M364.6,321.1c2.5,0,4.6,0,6.9,0c0,8,0.3,15.9-0.1,23.8c-0.2,4.6-3.4,7.6-7.9,8.8c-5.2,1.4-10.5,1.5-15.6-0.6
	c-3.5-1.4-5.9-4.2-6-7.9c-0.3-7.9-0.1-15.8-0.1-23.9c2.2,0,4.3,0,6.8,0c0.1,1.1,0.2,2.1,0.2,3.2c0,5.4,0,10.8,0,16.2
	c0,6.1,2.5,8.8,8,8.8c5.6,0,7.7-2.3,7.8-8.5c0-5.4,0-10.8,0-16.2C364.6,323.5,364.6,322.5,364.6,321.1z"/>
<path class="st1" d="M490.7,228"/>
</svg>
